<?xml version="1.0" standalone="no"?>
<!DOCTYPE svg PUBLIC "-//W3C//DTD SVG 20010904//EN"
 "http://www.w3.org/TR/2001/REC-SVG-20010904/DTD/svg10.dtd">
<svg version="1.0" xmlns="http://www.w3.org/2000/svg"
 width="512.000000pt" height="512.000000pt" viewBox="0 0 512.000000 512.000000"
 preserveAspectRatio="xMidYMid meet">

<g transform="translate(0.000000,512.000000) scale(0.100000,-0.100000)"
fill="#000000" stroke="none">
<path d="M1541 3989 c-1058 -353 -1029 -342 -1052 -419 -6 -23 -9 -346 -7
-952 3 -908 3 -917 24 -944 39 -53 71 -69 134 -69 63 0 95 16 134 69 21 27 21
37 24 826 l2 798 868 -289 c477 -159 878 -289 892 -289 14 0 472 149 1017 331
973 324 993 331 1023 367 53 64 52 146 -1 207 -28 32 -83 51 -1022 364 -546
182 -1006 331 -1022 330 -17 0 -473 -149 -1014 -330z"/>
<path d="M1215 2866 c-41 -18 -83 -69 -90 -109 -4 -18 -5 -266 -3 -552 4 -503
5 -523 27 -599 78 -277 257 -475 554 -616 331 -157 774 -221 1142 -166 595 89
984 345 1109 728 42 131 48 217 44 740 -3 473 -4 487 -24 514 -32 44 -68 66
-116 71 -41 5 -98 -17 -671 -256 l-626 -260 -624 259 c-405 168 -637 260 -659
260 -18 -1 -47 -7 -63 -14z m794 -623 c318 -132 511 -208 540 -211 42 -4 96
17 586 221 l540 225 3 -344 c2 -272 -1 -359 -12 -414 -62 -294 -338 -487 -814
-571 -364 -65 -814 6 -1095 172 -99 58 -215 176 -255 259 -56 113 -62 166 -62
553 l0 347 38 -15 c20 -9 259 -109 531 -222z"/>
</g>
</svg>
