<?xml version="1.0" standalone="no"?>
<!DOCTYPE svg PUBLIC "-//W3C//DTD SVG 20010904//EN"
 "http://www.w3.org/TR/2001/REC-SVG-20010904/DTD/svg10.dtd">
<svg version="1.0" xmlns="http://www.w3.org/2000/svg"
 width="512.000000pt" height="512.000000pt" viewBox="0 0 512.000000 512.000000"
 preserveAspectRatio="xMidYMid meet">

<g transform="translate(0.000000,512.000000) scale(0.100000,-0.100000)"
fill="#000000" stroke="none">
<path d="M440 4464 c-158 -34 -299 -140 -373 -282 -22 -41 -37 -75 -35 -76 1
-2 523 -350 1158 -773 776 -517 1174 -776 1210 -789 77 -27 243 -27 320 0 36
13 434 272 1210 789 635 423 1157 771 1158 773 2 1 -13 35 -35 76 -75 144
-215 249 -378 283 -102 21 -4135 21 -4235 -1z"/>
<path d="M0 2448 c0 -1112 3 -1322 15 -1374 53 -226 231 -389 463 -424 45 -7
746 -10 2127 -8 1972 3 2062 4 2115 21 149 50 266 147 332 273 72 137 68 55
66 1513 l-3 1311 -1072 -715 c-590 -393 -1099 -728 -1132 -745 -111 -55 -200
-74 -351 -74 -148 0 -241 19 -342 70 -28 14 -536 349 -1129 745 -593 395
-1081 719 -1084 719 -3 0 -5 -591 -5 -1312z"/>
</g>
</svg>
